# xmcd
#
# Track frame offsets: 
#        150
#        11190
#        20786
#        33239
#        43455
#        53797
#        65167
#        77440
#        87483
#        99467
#        110660
#        121690
#        133802
#        144593
#        158918
#        170166
#        180287
#        192296
#        205004
#        220324
#        233718
#
# Disc length: 3271 seconds
#
# Revision: 2
# Processed by: cddbd v1.5.2PL0 Copyright (c) Steve Scherf et al.
# Submitted via: ExactAudioCopy v0.99pb5
#
DISCID=2f0cc515
DTITLE=Various Artist - Juke Box Memories - You Can't Sit Down - CD 2
DYEAR=2006
DGENRE=Oldies
TTITLE0=4 Seasons - Big girls don't cry
TTITLE1=Elvis Presley - Don't be cruel
TTITLE2=Dixie Cups - Chapel of love
TTITLE3=Little Anthony and The Imperials - Tears on my pillow
TTITLE4=Everly Brothers - All I have to do is dream
TTITLE5=Drifters - This magic moment
TTITLE6=Shirelles - Will you love me tomorrow
TTITLE7=Angels - My boyfriend's back
TTITLE8=Connie Francis - Where the boys are
TTITLE9=Bobby Darin - Dream lover
TTITLE10=Little Eva - The loco-motion
TTITLE11=Mark Dinning - Teen angel
TTITLE12=Phil Phillips and The Twilights - Sea of love
TTITLE13=Petula Clark - Downtown
TTITLE14=Little Anthony and The Imperials - Goin' out of my head
TTITLE15=Danleers - One summer night
TTITLE16=Connie Francis - Everybody is somebody's fool
TTITLE17=Jerry Butler and Betty Everett - Let it be me
TTITLE18=Flamingos - I only have eyes for you
TTITLE19=Ben E. King - Stand by me
TTITLE20=Drifters - Save the last dance for me
EXTD=Jukebox Memoires
EXTT0=
EXTT1=
EXTT2=
EXTT3=
EXTT4=
EXTT5=
EXTT6=
EXTT7=
EXTT8=
EXTT9=
EXTT10=
EXTT11=
EXTT12=
EXTT13=
EXTT14=
EXTT15=
EXTT16=
EXTT17=
EXTT18=
EXTT19=
EXTT20=
PLAYORDER=
